#!OML:ASF H:\Male1\Project 1\Capture day 1\Session 1\Male1.ASF
:FULLY-SPECIFIED
:DEGREES
611
root 20.286 15.3799 -0.860965 -547.61 -83.2543 546.128
lowerback 5.84476 1.44105 -0.10724
upperback 3.72895 1.81354 -0.696609
thorax 0.579649 0.870838 -0.749407
lowerneck -5.45492 3.33828 7.77805
upperneck 0.574498 3.99885 -3.34916
head 1.37294 1.9618 -2.30184
rclavicle 2.80783e-014 -2.78299e-015
rhumerus -32.4248 15.306 -89.7104
rradius 38.5326
rwrist -25.9931
rhand -17.8608 -1.44654
rfingers 7.12502
rthumb 8.40471 -31.2593
lclavicle 2.80783e-014 -2.78299e-015
lhumerus -30.3612 14.3586 77.0905
lradius 21.4624
lwrist -12.4803
lhand -16.2027 9.02466
lfingers 7.12502
lthumb 10.0046 38.7669
rfemur -7.16691 17.6667 22.4158
rtibia 26.058
rfoot -32.1863 -32.6087
rtoes -13.4943
lfemur -9.35061 -10.9523 -17.0427
ltibia 30.0073
lfoot -21.052 22.0213
ltoes -11.9569
612
root 20.2693 15.383 -0.827034 -546.687 -83.3052 545.249
lowerback 5.75219 1.48671 -0.368778
upperback 3.67754 1.86392 -0.821643
thorax 0.574434 0.893547 -0.732192
lowerneck -5.50616 3.22307 7.70044
upperneck 0.695937 3.84016 -3.10109
head 1.40241 1.88788 -2.20995
rclavicle -2.48481e-016 6.36111e-015
rhumerus -32.6302 14.662 -89.8527
rradius 38.4969
rwrist -25.9023
rhand -17.672 -1.39714
rfingers 7.12502
rthumb 8.58688 -31.2025
lclavicle -2.48481e-016 6.36111e-015
lhumerus -29.9962 13.2856 77.5326
lradius 21.7578
lwrist -12.1285
lhand -15.83 9.51489
lfingers 7.12502
lthumb 10.3642 39.2395
rfemur -7.13388 17.76 22.1608
rtibia 26.0508
rfoot -32.4326 -32.5874
rtoes -13.2297
lfemur -9.15066 -11.4601 -17.3838
ltibia 29.7229
lfoot -21.1895 22.3504
ltoes -11.1332
613
root 20.254 15.3856 -0.792663 -546.158 -83.3414 544.752
lowerback 5.67959 1.52827 -0.600272
upperback 3.63665 1.90983 -0.928867
thorax 0.569175 0.914122 -0.713628
lowerneck -5.588 3.13268 7.62506
upperneck 0.798794 3.71195 -2.87801
head 1.43437 1.82833 -2.12574
rclavicle 1.4064e-014 -2.38542e-015
rhumerus -32.8414 14.1926 -90.0329
rradius 38.5209
rwrist -25.806
rhand -17.4664 -1.34558
rfingers 7.12502
rthumb 8.78525 -31.1427
lclavicle 1.4064e-014 -2.38542e-015
lhumerus -29.6348 12.0026 78.0843
lradius 22.2582
lwrist -11.4811
lhand -15.6966 9.57263
lfingers 7.12502
lthumb 10.4929 39.2908
rfemur -7.09153 17.8089 21.9526
rtibia 26.0302
rfoot -32.6376 -32.5441
rtoes -12.9642
lfemur -8.95159 -11.9743 -17.6799
ltibia 29.4728
lfoot -21.3816 22.6988
ltoes -10.4669
614
root 20.2402 15.3881 -0.758028 -545.893 -83.3673 544.509
lowerback 5.61939 1.56736 -0.822499
upperback 3.60811 1.95253 -1.01958
thorax 0.569342 0.932851 -0.683278
lowerneck -5.68093 3.06696 7.5519
upperneck 0.861897 3.61535 -2.67039
head 1.45806 1.78356 -2.04618
rclavicle -1.33186e-014 -3.57812e-015
rhumerus -33.055 13.8988 -90.2431
rradius 38.6054
rwrist -25.6858
rhand -17.2713 -1.27117
rfingers 7.12502
rthumb 8.97353 -31.0603
lclavicle -1.33186e-014 -3.57812e-015
lhumerus -29.2776 10.5952 78.7055
lradius 22.9048
lwrist -10.6147
lhand -15.7621 9.39857
lfingers 7.12502
lthumb 10.4296 39.1199
rfemur -7.04935 17.7989 21.7736
rtibia 26.0083
rfoot -32.7984 -32.4634
rtoes -12.7457
lfemur -8.75731 -12.4857 -17.9444
ltibia 29.2481
lfoot -21.5892 23.0725
ltoes -9.91847
615
root 20.2277 15.3904 -0.723011 -545.657 -83.3862 544.275
lowerback 5.57303 1.60662 -1.06148
upperback 3.59157 1.99421 -1.10113
thorax 0.573143 0.950427 -0.634327
lowerneck -5.74685 3.01591 7.47268
upperneck 0.866991 3.54035 -2.46104
head 1.45937 1.74867 -1.96473
rclavicle 1.09332e-015 -3.97569e-015
rhumerus -33.269 13.7604 -90.4723
rradius 38.74
rwrist -25.5151
rhand -17.082 -1.20216
rfingers 7.12502
rthumb 9.15625 -30.9834
lclavicle 1.09332e-015 -3.97569e-015
lhumerus -28.9214 9.14691 79.3571
lradius 23.6361
lwrist -9.64447
lhand -16.1404 8.77365
lfingers 7.12502
lthumb 10.0647 38.513
rfemur -7.00874 17.7115 21.5903
rtibia 25.9939
rfoot -32.8597 -32.3643
rtoes -12.6596
lfemur -8.5584 -12.9746 -18.2097
ltibia 29.0447
lfoot -21.7974 23.4646
ltoes -9.47211
616
root 20.2164 15.3926 -0.687625 -545.517 -83.3995 544.109
lowerback 5.54593 1.64732 -1.30625
upperback 3.58665 2.03692 -1.17239
thorax 0.577492 0.968029 -0.572017
lowerneck -5.77569 2.96832 7.40742
upperneck 0.832495 3.47245 -2.26986
head 1.44275 1.71653 -1.89215
rclavicle -1.50082e-014 2.42517e-014
rhumerus -33.4738 13.7326 -90.7065
rradius 38.9094
rwrist -25.269
rhand -16.864 -1.21658
rfingers 7.12502
rthumb 9.36656 -30.9885
lclavicle -1.50082e-014 2.42517e-014
lhumerus -28.556 7.71083 80.0142
lradius 24.4039
lwrist -8.66007
lhand -16.7495 7.91501
lfingers 7.12502
lthumb 9.47704 37.6819
rfemur -6.96675 17.5399 21.4094
rtibia 25.9911
rfoot -32.7778 -32.2765
rtoes -12.7844
lfemur -8.35108 -13.4188 -18.4666
ltibia 28.8656
lfoot -21.9998 23.8398
ltoes -9.0459
617
root 20.2071 15.3945 -0.652174 -545.758 -83.4158 544.301
lowerback 5.54618 1.68638 -1.51971
upperback 3.59004 2.07804 -1.22777
thorax 0.575515 0.985036 -0.51157
lowerneck -5.76277 2.91359 7.34052
upperneck 0.766094 3.39838 -2.07113
head 1.40808 1.68094 -1.8176
rclavicle 1.98785e-016 1.11319e-014
rhumerus -33.6609 13.7632 -90.9363
rradius 39.0956
rwrist -24.9455
rhand -16.5925 -1.33182
rfingers 7.12502
rthumb 9.62854 -31.0918
lclavicle 1.98785e-016 1.11319e-014
lhumerus -28.1723 6.30875 80.6597
lradius 25.1795
lwrist -7.70704
lhand -17.4956 6.96218
lfingers 7.12502
lthumb 8.75714 36.7605
rfemur -6.92283 17.2708 21.2661
rtibia 25.9994
rfoot -32.5579 -32.1791
rtoes -13.1169
lfemur -8.15098 -13.7931 -18.6702
ltibia 28.716
lfoot -22.1662 24.1584
ltoes -8.66573
618
root 20.2 15.3959 -0.617043 -546.429 -83.4372 544.904
lowerback 5.57194 1.72079 -1.69805
upperback 3.6024 2.11371 -1.26511
thorax 0.569016 0.999578 -0.452643
lowerneck -5.73612 2.83765 7.25906
upperneck 0.71579 3.29791 -1.85369
head 1.37439 1.63275 -1.73553
rclavicle -5.96354e-015 3.97569e-015
rhumerus -33.8124 13.8272 -91.152
rradius 39.2737
rwrist -24.5507
rhand -16.274 -1.51303
rfingers 7.12502
rthumb 9.93585 -31.2585
lclavicle -5.96354e-015 3.97569e-015
lhumerus -27.7606 4.95705 81.2837
lradius 25.9456
lwrist -6.80062
lhand -18.2504 6.13279
lfingers 7.12502
lthumb 8.0287 35.9603
rfemur -6.8771 16.904 21.1669
rtibia 26.0173
rfoot -32.2048 -32.0554
rtoes -13.6263
lfemur -7.96566 -14.0791 -18.8079
ltibia 28.5966
lfoot -22.2889 24.3974
ltoes -8.3715
619
root 20.1946 15.3968 -0.582366 -547.424 -83.4427 545.821
lowerback 5.59849 1.75572 -1.85207
upperback 3.62285 2.15116 -1.28616
thorax 0.570496 1.01513 -0.390622
lowerneck -5.71863 2.7484 7.17522
upperneck 0.694648 3.17915 -1.63177
head 1.35114 1.57602 -1.65231
rclavicle 1.56046e-014 -4.77083e-015
rhumerus -33.918 13.9218 -91.3523
rradius 39.4274
rwrist -24.1327
rhand -15.9495 -1.69866
rfingers 7.12502
rthumb 10.2488 -31.429
lclavicle 1.56046e-014 -4.77083e-015
lhumerus -27.3108 3.65061 81.8843
lradius 26.6751
lwrist -5.92714
lhand -18.9102 5.61666
lfingers 7.12502
lthumb 7.39179 35.4675
rfemur -6.84554 16.4494 21.0995
rtibia 26.0534
rfoot -31.7193 -31.886
rtoes -14.3304
lfemur -7.79387 -14.2758 -18.8881
ltibia 28.4955
lfoot -22.3926 24.5613
ltoes -8.12762
620
root 20.1903 15.3975 -0.547961 -548.571 -83.4215 546.896
lowerback 5.60629 1.79422 -1.99118
upperback 3.64722 2.19479 -1.29658
thorax 0.586355 1.03383 -0.325723
lowerneck -5.72 2.63205 7.07472
upperneck 0.717945 3.02341 -1.39282
head 1.34359 1.50193 -1.56185
rclavicle -2.99171e-014 -3.97569e-015
rhumerus -33.9857 14.0525 -91.5435
rradius 39.5544
rwrist -23.7718
rhand -15.6803 -1.80573
rfingers 7.12502
rthumb 10.5086 -31.5231
lclavicle -2.99171e-014 -3.97569e-015
lhumerus -26.8216 2.36352 82.4664
lradius 27.3478
lwrist -5.05809
lhand -19.3531 5.69785
lfingers 7.12502
lthumb 6.96432 35.5633
rfemur -6.8566 15.905 21.041
rtibia 26.1318
rfoot -31.0777 -31.6755
rtoes -15.2879
lfemur -7.62924 -14.4086 -18.9315
ltibia 28.3876
lfoot -22.4839 24.6777
ltoes -7.88418
621
root 20.1862 15.3985 -0.513696 -549.593 -83.3711 547.844
lowerback 5.60204 1.8407 -2.13484
upperback 3.67191 2.24927 -1.30766
thorax 0.608813 1.0578 -0.259147
lowerneck -5.7487 2.49082 6.97139
upperneck 0.785758 2.83228 -1.15327
head 1.35424 1.41114 -1.47192
rclavicle 2.18663e-015 9.54166e-015
rhumerus -34.0299 14.2061 -91.7299
rradius 39.6582
rwrist -23.5072
rhand -15.4975 -1.79055
rfingers 7.12502
rthumb 10.6849 -31.4989
lclavicle 2.18663e-015 9.54166e-015
lhumerus -26.3079 1.05869 83.0349
lradius 27.9596
lwrist -4.17003
lhand -19.7027 6.05857
lfingers 7.12502
lthumb 6.62684 35.9349
rfemur -6.92177 15.2717 20.9574
rtibia 26.2812
rfoot -30.2558 -31.4463
rtoes -16.5508
lfemur -7.44266 -14.5118 -18.9821
ltibia 28.2453
lfoot -22.5676 24.7838
ltoes -7.57782
622
root 20.1825 15.3999 -0.479756 -550.242 -83.3014 548.421
lowerback 5.59279 1.89742 -2.30424
upperback 3.68685 2.31631 -1.33042
thorax 0.623146 1.08782 -0.19086
lowerneck -5.79367 2.32456 6.86652
upperneck 0.890572 2.60608 -0.910425
head 1.37891 1.30382 -1.382
rclavicle 1.56046e-014 7.95139e-015
rhumerus -34.0681 14.3613 -91.9164
rradius 39.7537
rwrist -23.3565
rhand -15.3949 -1.68027
rfingers 7.12502
rthumb 10.7838 -31.3834
lclavicle 1.56046e-014 7.95139e-015
lhumerus -25.7888 -0.294233 83.5871
lradius 28.499
lwrist -3.27894
lhand -19.8943 6.88824
lfingers 7.12502
lthumb 6.44186 36.7703
rfemur -7.05316 14.5509 20.8173
rtibia 26.518
rfoot -29.3115 -31.156
rtoes -18.0286
lfemur -7.22966 -14.6209 -19.0745
ltibia 28.0528
lfoot -22.6551 24.8996
ltoes -7.14565
